
<svg height="512pt" viewBox="-47 0 512 512" width="512pt" xmlns="http://www.w3.org/2000/svg"><path d="m8.535156 426.667969c-4.710937 0-8.535156-3.824219-8.535156-8.535157v-341.332031c0-42.34375 34.457031-76.800781 76.800781-76.800781h332.800781c4.707032 0 8.53125 3.824219 8.53125 8.535156v341.332032c0 4.710937-3.824218 8.53125-8.53125 8.53125h-332.800781c-32.9375 0-59.734375 26.796874-59.734375 59.734374 0 4.710938-3.824218 8.535157-8.53125 8.535157zm68.265625-409.601563c-32.9375 0-59.734375 26.796875-59.734375 59.734375v293.109375c14.089844-17.414062 35.636719-28.578125 59.734375-28.578125h324.265625v-324.265625zm0 0"/><path d="m136.535156 426.667969h-59.734375c-4.710937 0-8.535156-3.824219-8.535156-8.535157 0-4.710937 3.824219-8.53125 8.535156-8.53125h59.734375c4.707032 0 8.53125 3.820313 8.53125 8.53125 0 4.710938-3.824218 8.535157-8.53125 8.535157zm0 0"/><path d="m238.933594 426.667969h-51.199219c-4.710937 0-8.535156-3.824219-8.535156-8.535157 0-4.710937 3.824219-8.53125 8.535156-8.53125h51.199219c4.710937 0 8.53125 3.820313 8.53125 8.53125 0 4.710938-3.820313 8.535157-8.53125 8.535157zm0 0"/><path d="m409.601562 426.667969h-42.667968c-4.710938 0-8.535156-3.824219-8.535156-8.535157 0-4.710937 3.824218-8.53125 8.535156-8.53125h42.667968c4.707032 0 8.53125 3.820313 8.53125 8.53125 0 4.710938-3.824218 8.535157-8.53125 8.535157zm0 0"/><path d="m8.535156 426.667969c-4.710937 0-8.535156-3.824219-8.535156-8.535157v-341.332031c0-38.5625 28.886719-71.289062 67.199219-76.136719 2.441406-.304687 4.875.445313 6.707031 2.066407 1.835938 1.621093 2.894531 3.949219 2.894531 6.398437v341.335938c0 4.300781-3.199219 7.925781-7.46875 8.464844-29.796875 3.761718-52.265625 29.21875-52.265625 59.203124 0 4.710938-3.824218 8.535157-8.53125 8.535157zm51.199219-407.050781c-24.894531 7.433593-42.667969 30.515624-42.667969 57.183593v293.179688c10.605469-13.125 25.480469-22.75 42.667969-26.667969zm0 0"/><path d="m8.535156 196.265625c-4.710937 0-8.535156-3.820313-8.535156-8.53125v-52.394531c0-38.5625 28.886719-71.289063 67.199219-76.136719 2.441406-.324219 4.875.445313 6.707031 2.066406 1.835938 1.621094 2.894531 3.949219 2.894531 6.398438v52.394531c0 4.300781-3.199219 7.929688-7.46875 8.464844-29.796875 3.765625-52.265625 29.21875-52.265625 59.207031 0 4.710937-3.824218 8.53125-8.53125 8.53125zm51.199219-118.101563c-24.894531 7.433594-42.667969 30.515626-42.667969 57.183594v4.242188c10.605469-13.125 25.480469-22.75 42.667969-26.667969zm0 0"/><path d="m8.535156 333.398438c-4.710937 0-8.535156-3.824219-8.535156-8.535157v-52.394531c0-38.5625 28.886719-71.285156 67.199219-76.132812 2.441406-.324219 4.875.441406 6.714843 2.0625 1.828126 1.613281 2.886719 3.953124 2.886719 6.402343v52.394531c0 4.300782-3.199219 7.925782-7.46875 8.464844-29.796875 3.761719-52.265625 29.21875-52.265625 59.203125 0 4.710938-3.824218 8.535157-8.53125 8.535157zm51.199219-118.109376c-24.894531 7.429688-42.667969 30.511719-42.667969 57.179688v4.242188c10.605469-13.125 25.480469-22.75 42.667969-26.667969zm0 0"/><path d="m187.734375 512c-2.21875 0-4.402344-.871094-6.035156-2.5l-19.566407-19.566406-19.566406 19.566406c-2.441406 2.441406-6.109375 3.164062-9.300781 1.851562-3.183594-1.324218-5.265625-4.4375-5.265625-7.886718v-85.332032c0-4.710937 3.824219-8.53125 8.535156-8.53125h51.199219c4.710937 0 8.53125 3.820313 8.53125 8.53125v85.332032c0 3.449218-2.082031 6.5625-5.265625 7.886718-1.054688.433594-2.164062.648438-3.265625.648438zm-25.601563-42.667969c2.183594 0 4.371094.835938 6.035157 2.5l11.03125 11.035157v-56.199219h-34.132813v56.199219l11.035156-11.035157c1.664063-1.664062 3.847657-2.5 6.03125-2.5zm0 0"/><path d="m409.601562 460.800781h-221.867187c-4.710937 0-8.535156-3.824219-8.535156-8.535156v-25.597656h-34.132813v25.597656c0 4.710937-3.824218 8.535156-8.53125 8.535156h-59.734375c-23.527343 0-42.667969-19.140625-42.667969-42.667969 0-23.527343 19.140626-42.667968 42.667969-42.667968h332.800781c4.707032 0 8.53125 3.824218 8.53125 8.535156v68.265625c0 4.710937-3.824218 8.535156-8.53125 8.535156zm-213.335937-17.066406h204.800781v-51.199219h-324.265625c-14.113281 0-25.601562 11.484375-25.601562 25.597656 0 14.113282 11.488281 25.601563 25.601562 25.601563h51.199219v-25.601563c0-4.710937 3.824219-8.53125 8.535156-8.53125h51.199219c4.710937 0 8.53125 3.820313 8.53125 8.53125zm0 0"/><path d="m409.601562 494.933594h-221.867187c-4.710937 0-8.535156-3.824219-8.535156-8.535156v-59.730469h-34.132813v59.730469c0 4.710937-3.824218 8.535156-8.53125 8.535156h-59.734375c-42.34375 0-76.800781-34.457032-76.800781-76.800782s34.457031-76.800781 76.800781-76.800781h332.800781c4.707032 0 8.53125 3.824219 8.53125 8.535157v136.53125c0 4.710937-3.824218 8.535156-8.53125 8.535156zm-213.335937-17.066406h204.800781v-119.46875h-324.265625c-32.9375 0-59.734375 26.796874-59.734375 59.734374s26.796875 59.734376 59.734375 59.734376h51.199219v-59.734376c0-4.710937 3.824219-8.53125 8.535156-8.53125h51.199219c4.710937 0 8.53125 3.820313 8.53125 8.53125zm0 0"/><path d="m211.949219 303.914062c-3.914063 0-8.890625-1.5-15.757813-4.042968-6.863281-2.484375-12.957031-5.230469-18.773437-8.421875-5.761719-3.167969-11.308594-6.792969-16.496094-10.789063-2.507813-1.9375-4.957031-3.957031-7.3125-6.074218l-.828125-.664063c-3.761719-2.964844-7.65625-6.019531-8.003906-10.863281-.53125-7.671875.210937-16.027344 2.21875-24.84375 2.902344-12.765625 9.257812-25.171875 18.890625-36.90625 3.933593-4.792969 8.628906-12.851563 8.628906-24.039063 0-2.011719-.582031-3.429687-1.9375-4.726562-4.445313-4.238281-16.339844-6.46875-31.027344-5.765625-9.257812.441406-18.015625-2.433594-24.558593-8.058594-2.398438-2.074219-3.464844-5.296875-2.746094-8.386719 7.617187-33.023437 28.585937-62.207031 57.511718-80.078125 3.78125-2.335937 8.535157-1.996094 16.417969 1.144532 3.492188 1.390624 6.664063 3.378906 9.429688 5.898437 4.609375 4.214844 8.066406 9.949219 10.300781 17.046875 3.125 9.949219 5.339844 25.488281 1.363281 36.53125-.382812 1.066406-.886719 2.109375-1.421875 3.132812-3.011718 6.117188-1.035156 10.84375.382813 13.175782 2.664062 4.375 7.398437 7.175781 12.355469 7.285156 10.582031.25 30.328124 4.652344 43.589843 31.308594 1.03125 2.074218 1.953125 4.226562 2.722657 6.425781 10.945312 31.429687-12.179688 51.671875-30.765626 67.933594-4.488281 3.925781-8.71875 7.640625-12.335937 11.316406-2.210937 2.253906-2.851563 3.804687-3.015625 4.710937-.175781 1.125.078125 2.894532.351562 4.761719l.136719.9375c.578125 4.089844.90625 8.226563.972657 12.316407.042968 2.8125-1.65625 6.203124-3.960938 7.824218-1.816406 1.320313-3.863281 1.910156-6.332031 1.910156zm-50.257813-44.695312c.554688.449219 1.148438.894531 1.628906 1.269531.734376.582031 1.339844 1.066407 1.679688 1.375 2.046875 1.824219 4.171875 3.589844 6.347656 5.273438 4.488282 3.457031 9.304688 6.605469 14.285156 9.34375 5.035157 2.765625 10.316407 5.152343 15.703126 7.089843 1.152343.425782 2.183593.804688 3.105468 1.128907-.015625-.148438-.042968-.285157-.058594-.429688l-.128906-.859375c-.410156-2.800781-.921875-6.273437-.296875-10.035156.808594-4.863281 3.386719-9.53125 7.667969-13.886719 4.0625-4.136719 8.75-8.234375 13.28125-12.199219 19.957031-17.46875 32.542969-30.347656 25.886719-49.46875-.527344-1.519531-1.167969-3.003906-1.882813-4.445312-7.074218-14.226562-16.734375-21.574219-28.714844-21.863281-10.71875-.246094-20.890624-6.1875-26.539062-15.488281-5.496094-9.035157-6.023438-19.558594-1.460938-28.894532l.503907-.980468c.179687-.351563.382812-.691407.519531-1.058594 2.246094-6.230469.855469-17.859375-1.585938-25.652344-1.3125-4.195312-3.183593-7.414062-5.53125-9.554688-1.234374-1.128906-2.660156-2.023437-4.246093-2.65625-1.433594-.578124-2.492188-.929687-3.226563-1.140624-22.308594 14.496093-38.871094 36.84375-46.234375 62.257812 2.5 1.03125 5.367188 1.511719 8.371094 1.363281 14.183594-.648437 33.28125.625 43.597656 10.480469 4.71875 4.503906 7.21875 10.410156 7.21875 17.066406 0 16.230469-6.792969 27.921875-12.5 34.867188-7.9375 9.667968-13.132812 19.710937-15.445312 29.867187-1.390625 6.152344-2.050781 11.929688-1.945313 17.230469zm-1.265625-1.152344"/><path d="m275.355469 301.523438c-2.9375 0-5.746094-1.515626-7.316407-4.136719l-9.871093-16.453125c-3.054688-5.058594-3.585938-10.664063-1.476563-15.777344 4.847656-11.777344 22.742188-17.382812 28.03125-18.808594 1.410156-.714844 6.527344-3.738281 6.527344-9.410156 0-.554688.050781-1.101562.164062-1.648438.765626-3.898437 8.191407-38.082031 32.894532-38.082031 7.132812 0 16.128906.773438 22.347656 6.832031l10.4375 10.4375c2.355469 2.355469 3.125 5.863282 1.972656 8.984376-13.535156 36.710937-43.855468 65.734374-81.109375 77.65625-.863281.28125-1.734375.40625-2.601562.40625zm32.9375-63.632813c-.46875 13.792969-11.101563 21.820313-17.441407 24.425781-.367187.152344-.761718.28125-1.144531.375-8.441406 2.148438-16.539062 6.738282-17.246093 8.992188l6.605468 10.949218c27.707032-10.796874 50.3125-32.664062 61.984375-60.039062l-6.382812-6.394531c-.859375-.835938-3.429688-1.917969-10.367188-1.917969-8.261719 0-14.285156 15.726562-16.007812 23.609375zm0 0"/><path d="m238.933594 307.199219c-70.578125 0-128-57.421875-128-128s57.421875-128 128-128 128 57.421875 128 128-57.421875 128-128 128zm0-238.933594c-61.167969 0-110.933594 49.765625-110.933594 110.933594s49.765625 110.933593 110.933594 110.933593c61.167968 0 110.933594-49.765624 110.933594-110.933593s-49.757813-110.933594-110.933594-110.933594zm0 0"/><path d="m323.96875 166.117188c-26.019531 0-46.867188-19.710938-55.074219-31.351563-5.597656-7.933594-22.101562-31.324219-3.132812-52.386719-.136719-7.371094 1.808593-13.214844 6.210937-18.976562.378906-.496094.804688-.9375 1.265625-1.339844l1.6875-1.425781c2.355469-1.988281 5.589844-2.558594 8.484375-1.484375 37.671875 13.960937 66.941406 45.304687 78.292969 83.824218.964844 3.25-.09375 6.757813-2.6875 8.941407-.0625.050781-.617187.511719-.675781.554687l-3.25 2.585938c-9.089844 7.246094-19.847656 11.058594-31.121094 11.058594zm-40.558594-88.566407c-.65625 1.9375-.734375 4.085938-.402344 7.160157.300782 2.6875-.699218 5.359374-2.6875 7.191406-10.472656 9.6875-6.792968 19.816406 2.515626 33.015625 4.738281 6.71875 21.351562 24.125 41.132812 24.125 7.011719 0 13.78125-2.304688 19.617188-6.664063-10.171876-28.878906-32.128907-52.523437-60.175782-64.828125zm0 0"/></svg>