<?xml version="1.0" encoding="iso-8859-1"?>
<!-- Generator: Adobe Illustrator 19.0.0, SVG Export Plug-In . SVG Version: 6.00 Build 0)  -->
<svg version="1.1" id="Capa_1" xmlns="http://www.w3.org/2000/svg" xmlns:xlink="http://www.w3.org/1999/xlink" x="0px" y="0px"
	 viewBox="0 0 512 512" style="enable-background:new 0 0 512 512;" xml:space="preserve">
<g>
	<g>
		<path d="M76.8,0C48.572,0,25.6,22.963,25.6,51.2s22.972,51.2,51.2,51.2S128,79.437,128,51.2S105.028,0,76.8,0z M76.8,85.333
			c-18.825,0-34.133-15.309-34.133-34.133S57.975,17.067,76.8,17.067s34.133,15.309,34.133,34.133S95.625,85.333,76.8,85.333z"/>
	</g>
</g>
<g>
	<g>
		<path d="M110.95,68.267h-0.213c-2.671,0-5.197,1.254-6.81,3.388C97.365,80.35,87.475,85.333,76.8,85.333
			c-10.675,0-20.565-4.983-27.127-13.679c-1.613-2.133-4.352-3.388-7.023-3.388C19.132,68.267,0,87.398,0,110.916v34.15
			c0,4.71,3.823,8.533,8.533,8.533h136.533c4.71,0,8.533-3.823,8.533-8.533v-34.15C153.6,87.398,134.468,68.267,110.95,68.267z
			 M136.533,136.533H17.067v-25.617c0-12.843,9.506-23.501,22.016-25.31C48.794,96.333,62.302,102.4,76.8,102.4
			c14.507,0,28.023-6.076,37.734-16.819c12.416,1.749,21.999,12.45,21.999,25.335V136.533z"/>
	</g>
</g>
<g>
	<g>
		<path d="M435.2,0C406.972,0,384,22.963,384,51.2s22.972,51.2,51.2,51.2s51.2-22.963,51.2-51.2S463.428,0,435.2,0z M435.2,85.333
			c-18.825,0-34.133-15.309-34.133-34.133s15.309-34.133,34.133-34.133c18.825,0,34.133,15.309,34.133,34.133
			S454.025,85.333,435.2,85.333z"/>
	</g>
</g>
<g>
	<g>
		<path d="M469.35,68.267h-0.213c-2.671,0-5.197,1.254-6.81,3.388c-6.562,8.695-16.452,13.679-27.128,13.679
			c-10.675,0-20.565-4.983-27.127-13.679c-1.613-2.133-4.352-3.388-7.023-3.388c-23.518,0-42.65,19.132-42.65,42.65v34.15
			c0,4.71,3.823,8.533,8.533,8.533h136.533c4.71,0,8.533-3.823,8.533-8.533v-34.15C512,87.398,492.868,68.267,469.35,68.267z
			 M494.933,136.533H375.467v-25.617c0-12.843,9.506-23.501,22.016-25.31c9.711,10.726,23.219,16.794,37.717,16.794
			c14.507,0,28.023-6.076,37.734-16.819c12.416,1.749,21.999,12.45,21.999,25.335V136.533z"/>
	</g>
</g>
<g>
	<g>
		<path d="M76.8,358.4c-28.228,0-51.2,22.963-51.2,51.2c0,28.237,22.972,51.2,51.2,51.2s51.2-22.963,51.2-51.2
			C128,381.363,105.028,358.4,76.8,358.4z M76.8,443.733c-18.825,0-34.133-15.309-34.133-34.133
			c0-18.825,15.309-34.133,34.133-34.133s34.133,15.309,34.133,34.133C110.933,428.425,95.625,443.733,76.8,443.733z"/>
	</g>
</g>
<g>
	<g>
		<path d="M110.95,426.667h-0.213c-2.671,0-5.197,1.254-6.81,3.388c-6.562,8.695-16.452,13.679-27.128,13.679
			c-10.675,0-20.565-4.983-27.127-13.679c-1.613-2.133-4.352-3.388-7.023-3.388c-23.518,0-42.65,19.132-42.65,42.65v34.15
			C0,508.177,3.823,512,8.533,512h136.533c4.71,0,8.533-3.823,8.533-8.533v-34.15C153.6,445.798,134.468,426.667,110.95,426.667z
			 M136.533,494.933H17.067v-25.617c0-12.843,9.506-23.501,22.016-25.31C48.794,454.733,62.302,460.8,76.8,460.8
			c14.507,0,28.023-6.076,37.734-16.819c12.416,1.749,21.999,12.45,21.999,25.335V494.933z"/>
	</g>
</g>
<g>
	<g>
		<path d="M435.2,358.4c-28.228,0-51.2,22.963-51.2,51.2c0,28.237,22.972,51.2,51.2,51.2s51.2-22.963,51.2-51.2
			C486.4,381.363,463.428,358.4,435.2,358.4z M435.2,443.733c-18.825,0-34.133-15.309-34.133-34.133
			c0-18.825,15.309-34.133,34.133-34.133c18.825,0,34.133,15.309,34.133,34.133C469.333,428.425,454.025,443.733,435.2,443.733z"/>
	</g>
</g>
<g>
	<g>
		<path d="M469.35,426.667h-0.213c-2.671,0-5.197,1.254-6.81,3.388c-6.562,8.695-16.452,13.679-27.128,13.679
			c-10.675,0-20.565-4.983-27.127-13.679c-1.613-2.133-4.352-3.388-7.023-3.388c-23.518,0-42.65,19.132-42.65,42.65v34.15
			c0,4.71,3.823,8.533,8.533,8.533h136.533c4.71,0,8.533-3.823,8.533-8.533v-34.15C512,445.798,492.868,426.667,469.35,426.667z
			 M494.933,494.933H375.467v-25.617c0-12.843,9.506-23.501,22.016-25.31c9.711,10.726,23.219,16.794,37.717,16.794
			c14.507,0,28.023-6.076,37.734-16.819c12.416,1.749,21.999,12.45,21.999,25.335V494.933z"/>
	</g>
</g>
<g>
	<g>
		<path d="M397.406,42.615c-7.347-4.873-15.01-9.412-22.775-13.483c-4.173-2.185-9.327-0.58-11.52,3.593
			c-2.185,4.173-0.572,9.335,3.601,11.52c7.253,3.806,14.404,8.038,21.257,12.587c1.451,0.964,3.089,1.425,4.71,1.425
			c2.756,0,5.47-1.34,7.117-3.814C402.398,50.517,401.331,45.218,397.406,42.615z"/>
	</g>
</g>
<g>
	<g>
		<g>
			<path d="M329.011,10.581c-15.71-4.668-31.974-7.834-48.341-9.404c-4.676-0.418-8.866,2.995-9.31,7.68
				c-0.452,4.685,2.987,8.858,7.68,9.31c15.275,1.468,30.455,4.42,45.107,8.772c0.811,0.239,1.63,0.358,2.432,0.358
				c3.669,0,7.066-2.406,8.183-6.101C336.102,16.674,333.525,11.921,329.011,10.581z"/>
			<path d="M231.433,1.169c-16.367,1.562-32.631,4.719-48.35,9.387c-4.514,1.34-7.091,6.093-5.751,10.607
				c1.101,3.712,4.497,6.11,8.175,6.11c0.802,0,1.621-0.119,2.441-0.358c14.66-4.352,29.833-7.305,45.107-8.755
				c4.685-0.444,8.124-4.608,7.68-9.301S236.126,0.734,231.433,1.169z"/>
		</g>
	</g>
</g>
<g>
	<g>
		<path d="M148.89,32.725c-2.185-4.173-7.347-5.777-11.52-3.593c-7.765,4.07-15.428,8.61-22.776,13.483
			c-3.925,2.603-5,7.902-2.389,11.827c1.638,2.475,4.352,3.814,7.117,3.814c1.621,0,3.26-0.461,4.71-1.425
			c6.852-4.557,14.012-8.789,21.257-12.587C149.47,42.061,151.074,36.898,148.89,32.725z"/>
	</g>
</g>
<g>
	<g>
		<path d="M483.968,352.734c-4.267-2.005-9.344-0.145-11.341,4.122c-3.465,7.424-7.364,14.763-11.588,21.811
			c-2.415,4.045-1.109,9.284,2.935,11.708c1.374,0.828,2.884,1.22,4.378,1.22c2.901,0,5.734-1.485,7.313-4.147
			c4.531-7.552,8.713-15.411,12.425-23.373C490.086,359.808,488.235,354.731,483.968,352.734z"/>
	</g>
</g>
<g>
	<g>
		<path d="M510.84,231.586c-0.444-4.693-4.591-8.09-9.301-7.689c-4.693,0.444-8.132,4.608-7.689,9.301
			c0.725,7.535,1.084,15.206,1.084,22.801c0,13.568-1.152,27.179-3.413,40.457c-0.785,4.642,2.338,9.054,6.98,9.847
			c0.478,0.085,0.964,0.119,1.442,0.119c4.079,0,7.689-2.935,8.397-7.091C510.771,285.107,512,270.532,512,256
			C512,247.868,511.607,239.65,510.84,231.586z"/>
	</g>
</g>
<g>
	<g>
		<path d="M495.479,165.47c-3.106-8.201-6.69-16.358-10.65-24.235c-2.125-4.207-7.253-5.914-11.46-3.789
			c-4.215,2.116-5.914,7.245-3.797,11.46c3.695,7.347,7.04,14.959,9.941,22.613c1.289,3.405,4.531,5.513,7.979,5.513
			c1.007,0,2.022-0.179,3.029-0.555C494.933,174.805,497.152,169.882,495.479,165.47z"/>
	</g>
</g>
<g>
	<g>
		<path d="M38.639,137.446c-4.215-2.125-9.344-0.418-11.46,3.789c-3.959,7.876-7.543,16.034-10.65,24.235
			c-1.673,4.412,0.546,9.336,4.958,11.008c0.998,0.375,2.014,0.555,3.021,0.555c3.447,0,6.69-2.108,7.987-5.513
			c2.901-7.654,6.246-15.266,9.941-22.613C44.553,144.691,42.846,139.563,38.639,137.446z"/>
	</g>
</g>
<g>
	<g>
		<path d="M20.471,296.397c-2.261-13.252-3.405-26.846-3.405-40.397c0-7.629,0.367-15.317,1.075-22.844
			c0.452-4.693-2.987-8.858-7.68-9.31c-4.651-0.401-8.858,2.987-9.301,7.68C0.393,239.599,0,247.825,0,256
			c0,14.515,1.229,29.065,3.644,43.264c0.717,4.164,4.318,7.1,8.405,7.1c0.478,0,0.964-0.034,1.442-0.12
			C18.142,305.451,21.265,301.039,20.471,296.397z"/>
	</g>
</g>
<g>
	<g>
		<path d="M50.944,378.667c-4.224-7.049-8.124-14.387-11.588-21.811c-1.997-4.267-7.074-6.127-11.341-4.122
			c-4.267,1.997-6.11,7.074-4.122,11.341c3.721,7.962,7.893,15.821,12.425,23.373c1.604,2.671,4.429,4.147,7.33,4.147
			c1.493,0,3.004-0.393,4.361-1.22C52.053,387.951,53.367,382.711,50.944,378.667z"/>
	</g>
</g>
<g>
	<g>
		<path d="M375.441,221.867H221.884c-9.421,0-17.084,7.663-17.084,17.084v102.366c0,9.421,7.663,17.084,17.092,17.084h81.775
			l48.7,48.7c1.63,1.63,3.814,2.5,6.033,2.5c1.101,0,2.21-0.213,3.268-0.649c3.183-1.323,5.265-4.437,5.265-7.885V358.4h8.516
			c9.421,0,17.084-7.663,17.084-17.092V238.95C392.533,229.53,384.87,221.867,375.441,221.867z M375.45,341.333H358.4
			c-4.71,0-8.533,3.823-8.533,8.533v30.601l-36.634-36.634c-1.596-1.604-3.772-2.5-6.033-2.5l-85.333-0.026V238.95l0.017-0.017
			l153.583,0.017L375.45,341.333z"/>
	</g>
</g>
<g>
	<g>
		<path d="M281.574,170.667H128.017c-9.421,0-17.084,7.663-17.084,17.084v102.366c0,9.421,7.663,17.084,17.084,17.084h8.516v42.667
			c0,3.447,2.082,6.562,5.274,7.885c1.05,0.435,2.159,0.649,3.26,0.649c2.219,0,4.403-0.87,6.033-2.5l48.7-48.7h13.534
			c4.71,0,8.533-3.823,8.533-8.533V238.95l68.267-0.017c4.71,0,8.533-3.823,8.533-8.533v-42.65
			C298.667,178.33,291.004,170.667,281.574,170.667z M281.6,221.867h-59.716c-9.421,0-17.084,7.663-17.084,17.084v51.183h-8.533
			c-2.261,0-4.437,0.896-6.033,2.5L153.6,329.267v-30.601c0-4.71-3.823-8.533-8.533-8.533L128,290.116l0.017-102.383L281.6,187.75
			V221.867z"/>
	</g>
</g>
<g>
	<g>
		<path d="M298.667,264.533h-51.2c-4.71,0-8.533,3.823-8.533,8.533c0,4.71,3.823,8.533,8.533,8.533h51.2
			c4.71,0,8.533-3.823,8.533-8.533C307.2,268.356,303.377,264.533,298.667,264.533z"/>
	</g>
</g>
<g>
	<g>
		<path d="M349.867,264.533H332.8c-4.71,0-8.533,3.823-8.533,8.533c0,4.71,3.823,8.533,8.533,8.533h17.067
			c4.71,0,8.533-3.823,8.533-8.533C358.4,268.356,354.577,264.533,349.867,264.533z"/>
	</g>
</g>
<g>
	<g>
		<path d="M349.867,298.667h-51.2c-4.71,0-8.533,3.823-8.533,8.533s3.823,8.533,8.533,8.533h51.2c4.71,0,8.533-3.823,8.533-8.533
			S354.577,298.667,349.867,298.667z"/>
	</g>
</g>
<g>
	<g>
		<path d="M264.533,298.667h-17.067c-4.71,0-8.533,3.823-8.533,8.533s3.823,8.533,8.533,8.533h17.067
			c4.71,0,8.533-3.823,8.533-8.533S269.244,298.667,264.533,298.667z"/>
	</g>
</g>
<g>
	<g>
		<path d="M171.511,479.514c-7.646-2.901-15.249-6.238-22.613-9.941c-4.207-2.108-9.344-0.418-11.46,3.789
			c-2.116,4.215-0.418,9.344,3.797,11.46c7.885,3.968,16.043,7.552,24.235,10.65c0.998,0.375,2.014,0.555,3.021,0.555
			c3.448,0,6.69-2.108,7.979-5.513C178.142,486.101,175.923,481.178,171.511,479.514z"/>
	</g>
</g>
<g>
	<g>
		<path d="M294.127,500.693c-0.563-4.676-4.787-8.021-9.489-7.458c-18.893,2.261-38.443,2.261-57.412-0.017
			c-4.693-0.563-8.926,2.773-9.489,7.45c-0.555,4.676,2.782,8.926,7.458,9.489C235.366,511.377,245.726,512,256,512
			c10.249,0,20.574-0.614,30.669-1.818C291.354,509.619,294.69,505.37,294.127,500.693z"/>
	</g>
</g>
<g>
	<g>
		<path d="M374.554,473.361c-2.125-4.207-7.253-5.914-11.46-3.789c-7.356,3.703-14.967,7.049-22.613,9.941
			c-4.403,1.664-6.63,6.588-4.958,10.999c1.297,3.405,4.54,5.513,7.987,5.513c1.007,0,2.022-0.179,3.012-0.555
			c8.192-3.106,16.35-6.69,24.235-10.65C374.972,482.705,376.67,477.577,374.554,473.361z"/>
	</g>
</g>
<g>
</g>
<g>
</g>
<g>
</g>
<g>
</g>
<g>
</g>
<g>
</g>
<g>
</g>
<g>
</g>
<g>
</g>
<g>
</g>
<g>
</g>
<g>
</g>
<g>
</g>
<g>
</g>
<g>
</g>
</svg>
