<?xml version="1.0" encoding="iso-8859-1"?>
<!-- Generator: Adobe Illustrator 22.0.0, SVG Export Plug-In . SVG Version: 6.00 Build 0)  -->
<svg xmlns="http://www.w3.org/2000/svg" xmlns:xlink="http://www.w3.org/1999/xlink" version="1.1" x="0px" y="0px" viewBox="0 0 59.997 56" style="enable-background:new 0 0 59.997 56;" xml:space="preserve" width="512" height="512">
<g id="_x34_7-Give_Media">
	<path d="M1,56c-0.194,0-0.387-0.057-0.554-0.168C0.167,55.647,0,55.335,0,55V43c0-0.43,0.275-0.812,0.682-0.948   c0.294-0.099,0.957-0.479,1.489-0.786c0.684-0.394,1.33-0.766,1.799-0.928c0.524-0.181,1.059-0.334,1.594-0.488   c0.8-0.229,1.555-0.446,2.264-0.75c0.588-0.251,1.112-0.671,1.667-1.116c0.6-0.48,1.22-0.979,1.998-1.335   c1.317-0.603,2.752-0.792,4.152-0.543c0.831,0.146,1.68,0.436,2.522,0.858c0.821,0.412,1.491,0.951,2.139,1.474   c0.24,0.193,0.48,0.387,0.728,0.573c0.794,0.595,1.66,1.107,2.573,1.525c1.442,0.658,3.604,1.349,5.7,0.891   c0.509-0.11,1.007-0.276,1.534-0.453c0.714-0.238,1.451-0.485,2.267-0.606c1.507-0.225,2.853-0.177,4.003,0.141   c1.078,0.299,1.899,1.039,2.313,2.086c0.201,0.508,0.301,1.014,0.396,1.504c0.405-0.027,0.809-0.076,1.213-0.123   c0.371-0.044,0.741-0.087,1.113-0.118c1.097-0.09,2.196-0.173,3.296-0.234c2.565-0.146,5.047-0.357,7.206-1.325   c1.316-0.589,3.54-0.797,5.242-0.051c0.997,0.438,1.686,1.151,1.991,2.065c0,0,0,0.001,0,0.001   c0.413,1.237-0.326,2.609-1.647,3.059c-1.063,0.361-2.125,0.728-3.186,1.095l-5.559,1.925c-0.266,0.092-0.529,0.194-0.793,0.297   c-0.616,0.239-1.252,0.486-1.947,0.625c-1.316,0.263-2.543,0.237-3.728,0.217c-0.534-0.01-1.075-0.021-1.633-0.004   c-1.619,0.047-3.209,0.325-4.726,0.826c-0.493,0.163-0.981,0.35-1.471,0.536c-1.167,0.445-2.375,0.905-3.696,1.088   c-1.516,0.209-3.195,0.098-4.676,0.001l-0.582-0.038c-1.208-0.074-2.407-0.323-3.566-0.564c-0.851-0.177-1.654-0.344-2.458-0.446   c-2.189-0.281-4.096-0.326-5.829-0.138c-3.669,0.401-9.536,1.683-13,3.133C1.262,55.975,1.131,56,1,56z M2,43.648v9.896   c3.742-1.329,8.844-2.379,12.17-2.743c1.892-0.206,3.952-0.16,6.3,0.142c0.881,0.113,1.76,0.296,2.61,0.473   c1.141,0.236,2.218,0.461,3.283,0.526l0.59,0.038c1.454,0.096,2.958,0.194,4.272,0.015c1.094-0.151,2.145-0.552,3.256-0.976   c0.517-0.197,1.034-0.395,1.555-0.566c1.701-0.562,3.482-0.874,5.295-0.928c0.591-0.016,1.163-0.007,1.729,0.004   c1.13,0.021,2.196,0.041,3.3-0.178c0.522-0.104,1.052-0.311,1.612-0.528c0.288-0.112,0.576-0.224,0.865-0.323l5.559-1.925   c1.065-0.367,2.129-0.735,3.196-1.098c0.243-0.083,0.463-0.321,0.393-0.532c-0.125-0.374-0.419-0.657-0.897-0.867   c-1.099-0.483-2.736-0.354-3.621,0.044c-2.47,1.106-5.151,1.339-7.911,1.496c-1.083,0.062-2.165,0.143-3.245,0.232   c-0.349,0.028-0.695,0.069-1.042,0.11c-0.495,0.058-0.99,0.116-1.489,0.143c-0.352,0.044-0.719,0.091-1.072-0.068   c-0.639-0.285-0.752-0.734-0.742-1.063c-0.032-0.098-0.065-0.272-0.099-0.448c-0.083-0.434-0.162-0.844-0.3-1.193   c-0.126-0.318-0.399-0.732-0.987-0.895c-0.879-0.244-1.948-0.274-3.176-0.09c-0.643,0.096-1.267,0.304-1.927,0.524   c-0.555,0.186-1.128,0.378-1.743,0.512c-2.635,0.569-5.237-0.242-6.957-1.026c-1.043-0.478-2.032-1.064-2.94-1.744   c-0.267-0.2-0.526-0.408-0.784-0.617c-0.592-0.477-1.151-0.927-1.781-1.243c-0.67-0.336-1.333-0.563-1.973-0.677   c-0.999-0.176-2.026-0.04-2.972,0.393c-0.552,0.253-1.051,0.653-1.579,1.077c-0.635,0.509-1.292,1.035-2.132,1.395   c-0.824,0.353-1.675,0.597-2.498,0.833c-0.502,0.145-1.005,0.289-1.496,0.457c-0.288,0.1-0.934,0.472-1.452,0.771   C2.757,43.236,2.357,43.466,2,43.648z"/>
	<path d="M29.568,48.743c-1.862,0-3.728-0.111-5.567-0.332c-2.337-0.281-5.347-0.794-7.905-2.274   c-0.478-0.276-0.641-0.888-0.365-1.366c0.277-0.478,0.889-0.644,1.366-0.364c2.243,1.297,4.995,1.761,7.142,2.019   c2.287,0.275,4.618,0.372,6.927,0.29l0.175-0.007c1.949-0.069,3.964-0.143,5.546-1.057c0.56-0.324,1.06-0.728,1.487-1.199   c0.371-0.408,1.003-0.442,1.413-0.07c0.409,0.37,0.44,1.003,0.07,1.412c-0.567,0.626-1.229,1.161-1.969,1.588   c-2.013,1.165-4.384,1.25-6.476,1.325l-0.175,0.006C30.683,48.733,30.125,48.743,29.568,48.743z"/>
	<path d="M36,36c-0.256,0-0.512-0.098-0.707-0.293L29.586,30H16c-0.552,0-1-0.447-1-1V1c0-0.553,0.448-1,1-1h40c0.552,0,1,0.447,1,1   v28c0,0.553-0.448,1-1,1H42.414l-5.707,5.707C36.512,35.902,36.256,36,36,36z M17,28h13c0.265,0,0.52,0.105,0.707,0.293L36,33.586   l5.293-5.293C41.48,28.105,41.735,28,42,28h13V2H17V28z"/>
	<path d="M56,10H16c-0.552,0-1-0.447-1-1V1c0-0.553,0.448-1,1-1h40c0.552,0,1,0.447,1,1v8C57,9.553,56.552,10,56,10z M17,8h38V2H17   V8z"/>
	<path d="M17,10c-0.256,0-0.512-0.098-0.707-0.293c-0.391-0.391-0.391-1.023,0-1.414l8-8c0.39-0.391,1.024-0.391,1.414,0   c0.391,0.391,0.391,1.023,0,1.414l-8,8C17.512,9.902,17.256,10,17,10z"/>
	<path d="M26,10c-0.256,0-0.512-0.098-0.707-0.293c-0.391-0.391-0.391-1.023,0-1.414l8-8c0.391-0.391,1.023-0.391,1.414,0   s0.391,1.023,0,1.414l-8,8C26.512,9.902,26.256,10,26,10z"/>
	<path d="M47,10c-0.256,0-0.512-0.098-0.707-0.293c-0.391-0.391-0.391-1.023,0-1.414l8-8c0.391-0.391,1.023-0.391,1.414,0   s0.391,1.023,0,1.414l-8,8C47.512,9.902,47.256,10,47,10z"/>
	<path d="M38,10c-0.256,0-0.512-0.098-0.707-0.293c-0.391-0.391-0.391-1.023,0-1.414l8-8c0.391-0.391,1.023-0.391,1.414,0   s0.391,1.023,0,1.414l-8,8C38.512,9.902,38.256,10,38,10z"/>
	<path d="M33,25c-0.167,0-0.333-0.042-0.485-0.125C32.197,24.698,32,24.363,32,24V14c0-0.363,0.197-0.698,0.515-0.875   c0.318-0.175,0.707-0.167,1.015,0.027l8,5C41.822,18.335,42,18.655,42,19s-0.178,0.665-0.47,0.848l-8,5   C33.368,24.949,33.184,25,33,25z M34,15.805v6.391L39.113,19L34,15.805z"/>
</g>

</svg>
