<svg height="512pt" viewBox="0 0 512 512" width="512pt" xmlns="http://www.w3.org/2000/svg"><path d="m486.398438 512h-460.796876c-4.710937 0-8.535156-3.8125-8.535156-8.535156v-238.929688c0-4.722656 3.824219-8.535156 8.535156-8.535156h460.796876c4.710937 0 8.535156 3.8125 8.535156 8.535156v238.929688c0 4.722656-3.824219 8.535156-8.535156 8.535156zm-452.265626-17.066406h443.734376v-221.867188h-443.734376zm0 0"/><path d="m469.332031 238.933594h-51.199219c-4.710937 0-8.53125-3.816406-8.53125-8.535156v-68.265626c0-4.71875 3.820313-8.53125 8.53125-8.53125h51.199219c4.710938 0 8.535157 3.8125 8.535157 8.53125v68.265626c0 4.71875-3.824219 8.535156-8.535157 8.535156zm-42.664062-17.066406h34.132812v-51.199219h-34.132812zm0 0"/><path d="m315.734375 238.933594h-119.46875c-4.710937 0-8.53125-3.816406-8.53125-8.535156v-51.199219c0-19.746094 4.488281-33.535157 13.710937-42.136719 7.355469-6.871094 17.296876-9.875 29.550782-9.054688 2.050781.15625 3.984375 1.023438 5.4375 2.484376l19.566406 19.574218 19.566406-19.566406c1.453125-1.457031 3.386719-2.328125 5.4375-2.484375 12.261719-.808594 22.195313 2.195313 29.550782 9.054687 9.222656 8.59375 13.710937 22.382813 13.710937 42.128907v51.199219c0 4.71875-3.820313 8.535156-8.53125 8.535156zm-110.933594-17.066406h102.398438v-42.667969c0-14.546875-2.789063-24.523438-8.285157-29.652344-3.269531-3.046875-7.757812-4.566406-13.660156-4.609375l-23.222656 23.230469c-3.328125 3.335937-8.734375 3.335937-12.0625 0l-23.222656-23.230469c-5.902344.042969-10.390625 1.5625-13.660156 4.609375-5.496094 5.128906-8.285157 15.105469-8.285157 29.652344zm0 0"/><path d="m443.734375 170.667969c-4.710937 0-8.535156-3.816407-8.535156-8.535157 0-28.234374 22.972656-51.199218 51.199219-51.199218 4.710937 0 8.535156 3.8125 8.535156 8.53125 0 4.722656-3.824219 8.535156-8.535156 8.535156-18.824219 0-34.132813 15.308594-34.132813 34.132812 0 4.71875-3.820313 8.535157-8.53125 8.535157zm0 0"/><path d="m443.734375 170.667969c-4.710937 0-8.535156-3.816407-8.535156-8.535157 0-18.824218-15.308594-34.132812-34.132813-34.132812-4.710937 0-8.53125-3.8125-8.53125-8.535156 0-4.71875 3.820313-8.53125 8.53125-8.53125 28.230469 0 51.199219 22.964844 51.199219 51.199218 0 4.71875-3.820313 8.535157-8.53125 8.535157zm0 0"/><path d="m443.734375 170.667969c-4.710937 0-8.535156-3.816407-8.535156-8.535157v-68.265624c0-4.71875 3.824219-8.535157 8.535156-8.535157s8.53125 3.816407 8.53125 8.535157v68.265624c0 4.71875-3.820313 8.535157-8.53125 8.535157zm0 0"/><path d="m256 477.867188c-51.753906 0-93.867188-42.113282-93.867188-93.867188s42.113282-93.867188 93.867188-93.867188 93.867188 42.113282 93.867188 93.867188-42.113282 93.867188-93.867188 93.867188zm0-170.667969c-42.351562 0-76.800781 34.449219-76.800781 76.800781s34.449219 76.800781 76.800781 76.800781 76.800781-34.449219 76.800781-76.800781-34.449219-76.800781-76.800781-76.800781zm0 0"/><path d="m503.464844 273.066406h-494.929688c-4.710937 0-8.535156-3.8125-8.535156-8.53125v-34.136718c0-4.71875 3.824219-8.53125 8.535156-8.53125h494.929688c4.710937 0 8.535156 3.8125 8.535156 8.53125v34.136718c0 4.71875-3.824219 8.53125-8.535156 8.53125zm-486.398438-17.066406h477.867188v-17.066406h-477.867188zm0 0"/><path d="m256 102.398438h-45.703125c-5.554687-.03125-10.234375-2.984376-12.570313-7.882813-2.535156-5.324219-1.757812-11.777344 1.980469-16.4375 7.472657-9.300781 13.214844-17.832031 13.625-35.609375 0-14.554688 8.917969-42.46875 42.667969-42.46875s42.667969 27.914062 42.667969 42.667969c.410156 17.578125 6.152343 26.109375 13.625 35.410156 3.738281 4.660156 4.515625 11.113281 1.980469 16.4375-2.335938 4.898437-7.015626 7.851563-12.519532 7.882813zm0-85.332032c-24.089844 0-25.546875 21.367188-25.601562 25.652344-.476563 20.726562-7.199219 32.734375-14.691407 42.613281h80.597657c-7.503907-9.878906-14.226563-21.871093-14.703126-42.46875-.054687-4.429687-1.511718-25.796875-25.601562-25.796875zm0 0"/><path d="m281.601562 204.800781h-51.203124c-4.707032 0-8.53125-3.816406-8.53125-8.535156s3.824218-8.53125 8.53125-8.53125h51.203124c4.707032 0 8.53125 3.8125 8.53125 8.53125s-3.824218 8.535156-8.53125 8.535156zm0 0"/><path d="m256 170.667969c-2.183594 0-4.367188-.835938-6.03125-2.5l-23.167969-23.167969c-1.871093.007812-3.960937.050781-4.738281.066406-3.378906-.078125-6.21875-1.679687-7.738281-4.53125-1.511719-2.859375-1.289063-6.3125.585937-8.949218 1.46875-2.058594 2.980469-3.960938 4.480469-5.847657 6.152344-7.695312 11.007813-13.78125 11.007813-31.871093 0-4.71875 3.824218-8.535157 8.535156-8.535157h34.132812c4.710938 0 8.535156 3.816407 8.535156 8.535157 0 18.089843 4.855469 24.175781 11.007813 31.871093 1.5 1.886719 3.011719 3.78125 4.480469 5.847657 1.875 2.636718 2.097656 6.089843.585937 8.949218-1.507812 2.851563-4.4375 4.464844-7.738281 4.53125-.777344-.015625-2.867188-.058594-4.738281-.066406l-23.167969 23.167969c-1.664062 1.664062-3.847656 2.5-6.03125 2.5zm-19.089844-39.691407 19.089844 19.089844 19.089844-19.089844c-4.660156-6.484374-8.953125-14.683593-10.199219-28.578124h-17.789063c-1.246093 13.894531-5.53125 22.09375-10.191406 28.578124zm0 0"/><path d="m290.132812 51.199219h-68.265624c-4.710938 0-8.535157-3.8125-8.535157-8.53125 0-14.753907 8.917969-42.667969 42.667969-42.667969s42.667969 27.914062 42.667969 42.667969c0 4.71875-3.824219 8.53125-8.535157 8.53125zm-58.417968-17.066407h48.570312c-2.234375-7.585937-8.234375-17.066406-24.285156-17.066406-16.035156 0-22.050781 9.472656-24.285156 17.066406zm0 0"/><path d="m256 349.867188c-4.710938 0-8.535156-3.816407-8.535156-8.535157v-8.53125c0-4.71875 3.824218-8.535156 8.535156-8.535156s8.535156 3.816406 8.535156 8.535156v8.53125c0 4.71875-3.824218 8.535157-8.535156 8.535157zm0 0"/><path d="m256 443.734375c-4.710938 0-8.535156-3.816406-8.535156-8.535156v-59.734375c0-4.71875 3.824218-8.53125 8.535156-8.53125s8.535156 3.8125 8.535156 8.53125v59.734375c0 4.71875-3.824218 8.535156-8.535156 8.535156zm0 0"/><path d="m51.199219 238.933594c-4.710938 0-8.53125-3.816406-8.53125-8.535156v-51.199219c0-32.929688 26.792969-59.734375 59.730469-59.734375 4.710937 0 8.535156 3.816406 8.535156 8.535156s-3.824219 8.535156-8.535156 8.535156c-23.523438 0-42.664063 19.136719-42.664063 42.664063v51.199219c0 4.71875-3.824219 8.535156-8.535156 8.535156zm0 0"/><path d="m153.601562 153.601562h-51.203124c-4.707032 0-8.53125-3.816406-8.53125-8.535156v-34.132812c0-4.71875 3.824218-8.535156 8.53125-8.535156h51.203124c4.707032 0 8.53125 3.816406 8.53125 8.535156v34.132812c0 4.71875-3.824218 8.535156-8.53125 8.535156zm-42.667968-17.066406h34.132812v-17.070312h-34.132812zm0 0"/></svg>